<svg width="48" height="48" viewBox="0 0 68 68" fill="none" xmlns="http://www.w3.org/2000/svg">
<g clip-path="url(#clip0_2737_543)">
<path fill-rule="evenodd" clip-rule="evenodd" d="M30.9149 22.8697C29.2725 23.6137 27.9289 24.2432 27.9292 24.2688C27.9299 24.3349 31.8708 26.0705 32.0107 26.0662C32.0743 26.0644 32.5359 25.8796 33.0363 25.6557L33.9464 25.2486L34.9403 25.6929L35.9342 26.1373L37.5618 25.5013C40.0143 24.5429 40.2691 24.4379 40.2291 24.4026C40.1762 24.3558 39.2965 23.9448 36.9099 22.8522C35.7565 22.3241 34.637 21.8064 34.422 21.7016C34.2072 21.5968 34.002 21.5126 33.9662 21.5142C33.9303 21.5158 32.5572 22.1258 30.9149 22.8697ZM23.7117 26.1134L22.0021 26.8813V30.2516C22.0021 32.1052 22.0246 33.6218 22.0521 33.6218C22.0795 33.6218 22.9207 33.3047 23.9212 32.9172L25.7405 32.2126V28.6601L26.6295 29.0813C27.3145 29.4056 28 29.7292 28.6858 30.0521L29.8532 30.6017L30.3726 30.3975C30.6984 30.2692 31.0235 30.1396 31.348 30.0088C31.5987 29.9073 32.2142 29.6662 32.7156 29.473C33.2171 29.2797 33.6813 29.0854 33.7471 29.0411C33.8346 28.9822 32.7684 28.4699 29.8035 27.1459C27.5686 26.1479 25.6683 25.3345 25.5807 25.3384C25.4931 25.3423 24.652 25.691 23.7117 26.1134ZM40.5373 26.329C39.3729 26.7861 38.4194 27.1784 38.4183 27.2008C38.4173 27.2231 39.0519 27.5512 39.8287 27.9298C40.6054 28.3085 41.2409 28.6386 41.2409 28.6634C41.2409 28.6882 40.5536 28.9778 39.7136 29.3071C38.8736 29.6363 36.7503 30.4701 34.9951 31.1601L29.1141 33.4718C27.6347 34.0533 26.3012 34.5775 26.1508 34.6368C23.1291 35.8263 22.2985 36.1564 22.1845 36.213C22.0698 36.2701 22.0438 36.6015 22.0234 38.2647L21.999 40.2485L23.5278 40.9259L25.0566 41.6033L27.1765 40.7713C28.3425 40.3138 29.2964 39.9155 29.2964 39.8861C29.2964 39.8569 29.081 39.7348 28.8178 39.6147C28.5544 39.4947 28.0108 39.2289 27.6096 39.024C27.2085 38.8191 26.8084 38.6311 26.7206 38.6061C26.6328 38.5813 26.5623 38.5378 26.5637 38.5094C26.5652 38.4811 27.4987 38.0955 28.638 37.6525C30.851 36.7921 32.5446 36.1289 36.1804 34.6991C37.8063 34.0599 39.4323 33.421 41.0585 32.7826C42.4877 32.2216 44.1495 31.5664 44.7513 31.3266L45.8454 30.8907L45.8697 28.8843L45.8942 26.878L44.3436 26.1859C43.4907 25.8053 42.7617 25.4948 42.7235 25.4959C42.6853 25.497 41.7015 25.8718 40.5373 26.329ZM45.43 33.5673C45.2015 33.6643 44.7502 33.8461 44.427 33.9711C44.1039 34.0961 43.4907 34.3367 43.0644 34.5058L42.2894 34.8132L42.2717 36.5746C42.262 37.5434 42.221 38.3317 42.1806 38.3266C42.0888 38.3147 40.6363 37.6669 39.1761 36.9866C38.1223 36.4956 38.0561 36.476 37.8084 36.5827C37.6653 36.6444 36.8096 36.9781 35.9069 37.3244C35.0042 37.6707 34.2362 37.9766 34.2001 38.0043C34.1641 38.032 35.9808 38.8883 38.2374 39.9072L42.3402 41.7599L44.0929 40.9715C45.0567 40.538 45.8763 40.1425 45.9141 40.0927C45.999 39.9809 45.9917 33.3755 45.9067 33.3844C45.873 33.3879 45.6585 33.4702 45.43 33.5673ZM35.7246 41.3204C35.4205 41.434 35.1166 41.5479 34.8128 41.6618C33.8952 42.007 34.075 42.0185 32.9834 41.5459C32.2564 41.2312 31.943 41.1341 31.807 41.1812C31.7049 41.2166 30.8268 41.5601 29.8554 41.9447C28.884 42.3292 28.0556 42.6438 28.0144 42.6438C27.6068 42.6438 28.2843 42.9959 30.8988 44.1427L33.965 45.4876L35.2551 44.9337C35.9646 44.6291 37.3958 44.0191 38.4355 43.5782C39.4751 43.1371 40.3129 42.7649 40.2972 42.7508C40.2814 42.7368 39.4103 42.3478 38.3613 41.8864L36.454 41.0475L35.7246 41.3204Z" fill="white"/>
</g>
<rect x="2" y="2" width="64" height="64" rx="32" stroke="white" stroke-width="4"/>
<defs>
<clipPath id="clip0_2737_543">
<rect width="24" height="24" fill="white" transform="translate(22 21.5)"/>
</clipPath>
</defs>
</svg>
