<svg width="48" height="48" viewBox="0 0 68 68" fill="none" xmlns="http://www.w3.org/2000/svg">
<g clip-path="url(#clip0_2737_533)">
<path d="M26.9972 32.9134C26.9972 32.3594 27.4522 31.9044 28.0052 31.9044H29.7053C30.2593 31.9044 30.7335 32.3594 30.7335 32.9335V39.3454C30.9313 39.2858 31.1684 39.2263 31.4458 39.1668C31.8212 39.0679 32.0986 38.7319 32.0986 38.3354V30.3799C32.0986 29.826 32.5537 29.3508 33.1268 29.3508H34.8269C35.3809 29.3508 35.8551 29.8058 35.8551 30.3799V37.7623C35.8551 37.7623 36.2708 37.5838 36.6855 37.4062C37.0023 37.2679 37.2001 36.9713 37.2001 36.6142V27.8081C37.2001 27.2542 37.6551 26.779 38.209 26.779H39.9092C40.4631 26.779 40.9181 27.234 40.9181 27.8081V35.0714C42.3812 34.003 43.8845 32.7166 45.0711 31.1729C45.4273 30.7178 45.5261 30.1236 45.3284 29.5697C43.153 23.3162 36.3121 19.9908 30.0634 22.1681C23.8148 24.3454 20.4932 31.1921 22.6676 37.4465C22.9047 38.1588 23.2215 38.8318 23.5969 39.4846C23.8935 39.9991 24.4474 40.2958 25.0407 40.2362C25.3575 40.2161 25.753 40.1767 26.2465 40.1172C26.6813 40.0778 26.9981 39.7015 26.9981 39.2657L26.9972 32.9134Z" fill="white"/>
<path d="M26.9568 43.2045C32.3155 47.1031 39.8102 45.9155 43.7049 40.553C45.1882 38.4947 45.9984 36.0208 45.9984 33.4883C45.9984 33.2109 45.9782 32.9344 45.959 32.657C41.5901 39.2071 33.5021 42.2743 26.9568 43.2045Z" fill="white"/>
</g>
<rect x="2" y="2" width="64" height="64" rx="32" stroke="white" stroke-width="4"/>
<defs>
<clipPath id="clip0_2737_533">
<rect width="24" height="24" fill="white" transform="translate(22 21.5)"/>
</clipPath>
</defs>
</svg>
