<svg width="48" height="48" viewBox="0 0 48 48" fill="none" xmlns="http://www.w3.org/2000/svg">
<rect x="0.5" y="0.5" width="47" height="47" rx="23.5" fill="#FCF535" stroke="black"/>
<path fill-rule="evenodd" clip-rule="evenodd" d="M15.9995 17.9999C15.9995 17.4477 16.4472 16.9999 16.9995 16.9999H30.9995C31.5518 16.9999 31.9995 17.4477 31.9995 17.9999C31.9995 18.5522 31.5518 18.9999 30.9995 18.9999H16.9995C16.4472 18.9999 15.9995 18.5522 15.9995 17.9999ZM15.9996 24C15.9996 23.4477 16.4473 23 16.9996 23H30.9996C31.5519 23 31.9996 23.4477 31.9996 24C31.9996 24.5522 31.5519 25 30.9996 25H16.9996C16.4473 25 15.9996 24.5522 15.9996 24ZM16.9996 29C16.4473 29 15.9996 29.4477 15.9996 30C15.9996 30.5522 16.4473 31 16.9996 31H30.9996C31.5519 31 31.9996 30.5522 31.9996 30C31.9996 29.4477 31.5519 29 30.9996 29H16.9996Z" fill="black"/>
</svg>
