<svg width="48" height="48" viewBox="0 0 68 68" fill="none" xmlns="http://www.w3.org/2000/svg">
<path d="M48.5294 24.8422C47.4442 25.3245 46.2753 25.6493 45.0498 25.797C46.3024 25.0464 47.2596 23.8604 47.7149 22.4454C46.5435 23.1393 45.2467 23.6438 43.8662 23.9145C42.7638 22.7358 41.1864 22 39.4466 22C35.534 22 32.6598 25.6493 33.5432 29.4389C28.5109 29.1855 24.0446 26.7739 21.0572 23.1098C19.47 25.8314 20.2353 29.3946 22.9323 31.1984C21.9406 31.1664 21.008 30.8933 20.191 30.4405C20.1246 33.2458 22.1375 35.8714 25.0511 36.4571C24.1996 36.6884 23.2645 36.7425 22.3147 36.5604C23.0849 38.9671 25.3267 40.7167 27.9745 40.7659C25.4226 42.7641 22.2162 43.6573 19 43.2784C21.6823 44.9985 24.864 46 28.2845 46C39.5352 46 45.889 36.4989 45.5051 27.9772C46.6912 27.1258 47.7173 26.0578 48.5294 24.8422Z" fill="white"/>
<rect x="2" y="2" width="64" height="64" rx="32" stroke="white" stroke-width="4"/>
</svg>
